<svg xmlns="http://www.w3.org/2000/svg" xmlns:xlink="http://www.w3.org/1999/xlink" width="500" zoomAndPan="magnify" viewBox="0 0 375 374.999991" height="500" preserveAspectRatio="xMidYMid meet" version="1.0"><defs><clipPath id="65c442e1de"><path d="M 13 136 L 123.398438 136 L 123.398438 228 L 13 228 Z M 13 136 " clip-rule="nonzero"/></clipPath><clipPath id="31b507c844"><path d="M 208 135.246094 L 362.695312 135.246094 L 362.695312 229 L 208 229 Z M 208 135.246094 " clip-rule="nonzero"/></clipPath><clipPath id="d69a95fc23"><path d="M 91.117188 137 L 177.367188 137 L 177.367188 229 L 91.117188 229 Z M 91.117188 137 " clip-rule="nonzero"/></clipPath><clipPath id="18a51c5b78"><path d="M 0 23.554688 L 375 23.554688 L 375 140.765625 L 0 140.765625 Z M 0 23.554688 " clip-rule="nonzero"/></clipPath><clipPath id="567cef7459"><path d="M 0 224.445312 L 375 224.445312 L 375 345.230469 L 0 345.230469 Z M 0 224.445312 " clip-rule="nonzero"/></clipPath><clipPath id="621d946d1a"><path d="M 305 118 L 375 118 L 375 280 L 305 280 Z M 305 118 " clip-rule="nonzero"/></clipPath><clipPath id="38d377c4c4"><path d="M 305.21875 260.894531 L 365.289062 118.460938 L 408.671875 136.757812 L 348.601562 279.191406 Z M 305.21875 260.894531 " clip-rule="nonzero"/></clipPath></defs><g clip-path="url(#65c442e1de)"><path fill="#0746a4" d="M 369.398438 136.339844 C 369.242188 136.402344 369.113281 136.65625 369.113281 136.902344 C 369.113281 137.53125 369.882812 137.347656 369.976562 136.695312 C 370.046875 136.191406 369.933594 136.121094 369.398438 136.339844 M 13.753906 138.4375 C 13.46875 138.617188 13.496094 138.816406 13.949219 139.84375 C 14.238281 140.5 14.910156 142.105469 15.441406 143.410156 C 16.316406 145.550781 16.984375 147.125 20.183594 154.578125 C 22.175781 159.226562 24.625 164.976562 24.839844 165.519531 C 24.964844 165.832031 25.980469 168.21875 27.101562 170.824219 C 28.222656 173.429688 29.792969 177.136719 30.59375 179.058594 C 32.003906 182.445312 34.148438 187.472656 34.96875 189.324219 C 35.1875 189.820312 35.742188 191.089844 36.199219 192.144531 C 36.652344 193.199219 37.164062 194.367188 37.328125 194.742188 C 37.492188 195.113281 38.082031 196.535156 38.636719 197.898438 C 39.195312 199.265625 41.449219 204.59375 43.652344 209.746094 C 48.363281 220.777344 49.738281 224.042969 50.417969 225.875 C 50.871094 227.078125 51.003906 227.238281 51.683594 227.378906 C 52.101562 227.46875 59.277344 227.519531 67.625 227.496094 C 80.84375 227.460938 82.835938 227.414062 83.019531 227.117188 C 83.136719 226.933594 83.65625 225.765625 84.175781 224.523438 C 87.277344 217.089844 93.273438 202.96875 94.515625 200.15625 C 95.257812 198.480469 96.074219 196.5625 97.578125 192.949219 C 98.402344 190.96875 99.261719 188.9375 99.484375 188.433594 C 100.070312 187.132812 101.871094 182.921875 102.882812 180.496094 C 103.351562 179.359375 104.011719 177.835938 104.34375 177.109375 C 104.679688 176.382812 105.644531 174.113281 106.492188 172.066406 C 107.554688 169.503906 108.628906 166.945312 109.710938 164.394531 C 115.777344 150.109375 118.507812 143.722656 119.132812 142.367188 C 119.523438 141.511719 119.972656 140.410156 120.132812 139.914062 C 120.289062 139.414062 120.492188 138.832031 120.582031 138.613281 C 120.738281 138.242188 119.863281 138.21875 104.042969 138.21875 C 94.855469 138.21875 87.179688 138.28125 86.984375 138.355469 C 86.789062 138.433594 86.625 138.746094 86.625 139.054688 C 86.625 139.363281 86.226562 140.542969 85.734375 141.679688 C 83.96875 145.769531 80.46875 154.140625 80.246094 154.804688 C 80.121094 155.175781 79.945312 155.582031 79.855469 155.707031 C 79.765625 155.832031 79.207031 157.148438 78.609375 158.640625 C 78.015625 160.128906 77.128906 162.210938 76.640625 163.265625 C 76.148438 164.320312 75.394531 166.046875 74.960938 167.101562 C 74.53125 168.15625 73.179688 171.40625 71.960938 174.320312 C 70.742188 177.238281 69.519531 180.257812 69.242188 181.03125 C 68.96875 181.804688 68.609375 182.546875 68.449219 182.683594 C 68.078125 182.988281 67.628906 182.144531 65.96875 178.042969 C 65.035156 175.75 64.101562 173.453125 63.160156 171.160156 C 62.128906 168.644531 61.105469 166.125 60.082031 163.601562 C 59.28125 161.617188 58.488281 159.6875 58.320312 159.316406 C 58.15625 158.945312 57.742188 157.929688 57.402344 157.058594 C 56.804688 155.53125 56.136719 153.929688 55.707031 153 C 55.488281 152.519531 54.15625 149.25 53.410156 147.359375 C 53.167969 146.738281 52.785156 145.824219 52.5625 145.328125 C 52.339844 144.832031 51.683594 143.15625 51.101562 141.605469 C 50.519531 140.054688 49.878906 138.65625 49.675781 138.503906 C 49.390625 138.28125 45.449219 138.21875 31.699219 138.222656 C 21.230469 138.226562 13.953125 138.3125 13.753906 138.4375 " fill-opacity="1" fill-rule="evenodd"/></g><g clip-path="url(#31b507c844)"><path fill="#f61516" d="M 325.21875 135.640625 C 325 135.699219 324.753906 135.972656 324.667969 136.25 C 324.515625 136.734375 319.859375 147.058594 317.917969 151.226562 C 317.394531 152.34375 316.40625 154.519531 315.71875 156.0625 C 314.855469 157.996094 313.984375 159.929688 313.105469 161.855469 L 310.417969 167.730469 C 309.695312 169.3125 308.632812 171.644531 308.058594 172.910156 C 307.488281 174.175781 306.472656 176.40625 305.804688 177.863281 C 303.964844 181.871094 303.417969 183.085938 302.425781 185.347656 C 302.015625 186.289062 301.601562 187.230469 301.1875 188.167969 C 300.785156 189.082031 300.453125 189.121094 300.144531 188.285156 C 300.015625 187.9375 299.660156 187.132812 299.355469 186.5 C 298.828125 185.402344 294.785156 175.953125 292.214844 169.800781 C 291.160156 167.277344 286.367188 156.136719 285.527344 154.253906 C 285.359375 153.875 284.746094 152.371094 284.164062 150.914062 C 283.582031 149.460938 283.007812 148.058594 282.890625 147.804688 C 281.671875 145.152344 279.550781 139.894531 279.117188 138.449219 C 279.019531 138.117188 278.285156 138.050781 273.171875 137.910156 C 269.964844 137.820312 262.574219 137.78125 256.746094 137.824219 L 246.152344 137.902344 L 245.855469 138.824219 C 245.695312 139.332031 245.417969 140.054688 245.242188 140.4375 C 245.066406 140.816406 244.507812 142.164062 244.003906 143.429688 C 243.496094 144.699219 242.777344 146.40625 242.40625 147.230469 L 241.257812 149.765625 C 238.277344 156.355469 235.671875 163 235.671875 164.015625 C 235.671875 164.222656 235.351562 165.0625 234.964844 165.886719 C 234.574219 166.710938 233.789062 168.523438 233.21875 169.917969 C 232.652344 171.308594 231.988281 172.792969 231.742188 173.210938 C 231.292969 173.980469 229.804688 177.515625 228.421875 181.085938 C 228.007812 182.164062 227.191406 183.976562 226.609375 185.117188 C 226.027344 186.257812 225.09375 188.5 224.53125 190.097656 C 223.964844 191.695312 223.015625 194.027344 222.417969 195.28125 C 219.195312 202.019531 217.941406 204.886719 217.9375 205.511719 C 217.9375 205.710938 217.5625 206.488281 217.105469 207.242188 C 216.648438 207.992188 216.140625 208.984375 215.976562 209.445312 C 215.8125 209.902344 215.414062 210.835938 215.09375 211.515625 C 214.25 213.3125 210.632812 221.683594 209.863281 223.621094 C 209.503906 224.53125 208.9375 225.8125 208.609375 226.464844 C 208.277344 227.113281 208.039062 227.871094 208.078125 228.148438 L 208.148438 228.644531 L 226.253906 228.707031 C 244.109375 228.761719 244.367188 228.757812 244.949219 228.300781 C 245.285156 228.035156 245.710938 227.3125 245.929688 226.628906 C 246.144531 225.964844 246.613281 224.902344 246.96875 224.269531 C 247.9375 222.546875 249.847656 217.980469 250.609375 215.570312 C 251.691406 212.15625 253.75 206.652344 254.511719 205.15625 C 254.898438 204.394531 255.699219 202.582031 256.289062 201.125 C 257.71875 197.601562 260.285156 191.453125 260.5625 190.875 C 260.683594 190.621094 261.378906 188.910156 262.109375 187.074219 C 262.835938 185.238281 263.535156 183.75 263.660156 183.769531 C 263.785156 183.785156 264.308594 184.820312 264.828125 186.070312 C 265.347656 187.320312 265.984375 188.808594 266.246094 189.378906 C 266.699219 190.375 268.171875 193.933594 269.527344 197.324219 C 269.882812 198.210938 270.921875 200.644531 271.835938 202.734375 C 273.359375 206.222656 274.554688 209.070312 278.265625 218.050781 C 281.539062 225.976562 282.703125 228.648438 282.960938 228.8125 C 283.109375 228.90625 292.664062 228.960938 304.191406 228.929688 L 325.148438 228.875 L 325.773438 227.609375 C 326.117188 226.914062 326.832031 225.359375 327.363281 224.15625 C 327.890625 222.953125 328.613281 221.34375 328.964844 220.585938 C 329.316406 219.824219 330.640625 216.871094 331.902344 214.019531 C 333.164062 211.171875 334.558594 208.0625 335 207.113281 C 335.4375 206.160156 336.480469 203.882812 337.308594 202.042969 C 338.140625 200.207031 338.980469 198.394531 339.179688 198.015625 C 339.378906 197.632812 339.539062 197.238281 339.542969 197.132812 C 339.542969 197.03125 340.0625 195.851562 340.695312 194.515625 C 341.328125 193.179688 341.847656 192.042969 341.847656 191.984375 C 341.847656 191.863281 342.507812 190.402344 343.859375 187.535156 C 344.425781 186.332031 345.542969 183.898438 346.335938 182.125 C 348.535156 177.222656 352.292969 168.949219 353.082031 167.269531 C 353.46875 166.445312 354.402344 164.371094 355.15625 162.660156 C 357.46875 157.410156 360.394531 150.914062 361.511719 148.554688 C 362.097656 147.316406 362.574219 146.265625 362.574219 146.210938 C 362.574219 146.160156 363.207031 144.785156 363.984375 143.160156 C 365.984375 138.972656 366.71875 137.34375 366.71875 137.121094 C 366.71875 137.011719 366.875 136.792969 367.066406 136.636719 C 367.253906 136.480469 367.410156 136.15625 367.410156 135.917969 C 367.410156 135.496094 366.8125 135.484375 346.511719 135.511719 C 335.015625 135.527344 325.433594 135.585938 325.21875 135.640625 " fill-opacity="1" fill-rule="evenodd"/></g><g clip-path="url(#d69a95fc23)"><path fill="#f61516" d="M 135.402344 137.988281 C 134.78125 138.105469 134.496094 138.539062 133.460938 140.933594 C 132.914062 142.1875 132.355469 143.433594 131.78125 144.671875 C 131.304688 145.691406 130.914062 146.558594 130.914062 146.597656 C 130.914062 146.640625 130.304688 147.953125 129.558594 149.515625 C 128.816406 151.082031 127.828125 153.210938 127.367188 154.246094 C 126.898438 155.296875 126.425781 156.347656 125.949219 157.394531 C 125.628906 158.085938 125.367188 158.707031 125.367188 158.765625 C 125.367188 158.828125 124.96875 159.738281 124.480469 160.792969 C 123.992188 161.84375 123.59375 162.734375 123.59375 162.773438 C 123.59375 162.8125 123.042969 164.003906 122.375 165.421875 C 121.703125 166.839844 121.152344 168.039062 121.152344 168.09375 C 121.152344 168.171875 120.019531 170.648438 117.488281 176.097656 C 117.203125 176.710938 116.527344 178.207031 115.980469 179.425781 C 115.46875 180.574219 114.949219 181.722656 114.429688 182.867188 C 114.121094 183.539062 113.472656 184.984375 112.988281 186.082031 C 112.503906 187.179688 111.398438 189.609375 110.53125 191.476562 C 108.464844 195.941406 108.597656 195.644531 106.414062 200.558594 C 105.367188 202.90625 104.515625 204.867188 104.515625 204.917969 C 104.515625 204.964844 103.976562 206.140625 103.320312 207.523438 C 102.039062 210.230469 101.710938 210.949219 100.339844 214.035156 C 99.851562 215.136719 98.957031 217.082031 98.347656 218.363281 C 95.9375 223.445312 94.503906 226.660156 94.386719 227.242188 C 94.265625 227.851562 94.269531 227.855469 95.785156 228 C 96.621094 228.082031 105.457031 228.09375 115.417969 228.027344 C 125.378906 227.957031 133.84375 227.902344 134.222656 227.902344 C 134.863281 227.902344 134.96875 227.785156 135.664062 226.292969 C 137.695312 221.929688 138.238281 220.753906 138.238281 220.683594 C 138.238281 220.640625 138.644531 219.726562 139.144531 218.652344 C 140.613281 215.488281 140.898438 214.84375 140.898438 214.707031 C 140.898438 214.589844 142.207031 211.699219 147.242188 200.683594 C 148.144531 198.707031 148.886719 197.042969 148.886719 196.984375 C 148.886719 196.925781 149.394531 195.796875 150.019531 194.476562 C 150.640625 193.152344 151.527344 191.222656 151.992188 190.1875 C 152.453125 189.148438 153.253906 187.402344 153.769531 186.304688 C 154.851562 184 158.425781 175.996094 158.425781 175.878906 C 158.425781 175.800781 159.085938 174.359375 160.78125 170.71875 C 161.746094 168.644531 163.679688 164.410156 164.90625 161.679688 C 165.402344 160.582031 166.378906 158.433594 167.082031 156.910156 C 167.785156 155.382812 168.679688 153.386719 169.074219 152.472656 C 169.46875 151.558594 170.042969 150.257812 170.347656 149.585938 C 170.652344 148.917969 171.246094 147.570312 171.667969 146.59375 C 172.089844 145.617188 172.96875 143.71875 173.625 142.378906 C 175.121094 139.3125 175.539062 138.277344 175.382812 138.027344 C 175.261719 137.832031 136.414062 137.792969 135.402344 137.988281 M 89.429688 201.28125 C 89.273438 201.652344 89.195312 202.011719 89.257812 202.070312 C 89.320312 202.132812 89.496094 201.875 89.648438 201.503906 C 89.804688 201.128906 89.882812 200.773438 89.820312 200.710938 C 89.757812 200.648438 89.582031 200.90625 89.429688 201.28125 M 234.117188 225.351562 C 233.886719 225.863281 233.910156 225.90625 234.414062 225.90625 C 234.980469 225.90625 235.0625 225.753906 234.832031 225.148438 C 234.636719 224.648438 234.410156 224.714844 234.117188 225.351562 " fill-opacity="1" fill-rule="evenodd"/></g><path fill="#0746a4" d="M 190.269531 137.449219 C 190.058594 137.503906 189.761719 137.878906 189.605469 138.285156 C 189.195312 139.355469 185.722656 147.605469 182.089844 156.136719 C 180.355469 160.207031 177.96875 165.824219 176.785156 168.625 C 173.582031 176.210938 169.964844 184.714844 169.589844 185.539062 C 169.410156 185.941406 169.261719 186.324219 169.261719 186.390625 C 169.261719 186.457031 168.933594 187.222656 168.53125 188.085938 C 167.824219 189.617188 166.09375 193.691406 164.488281 197.617188 C 164.054688 198.679688 163.441406 200.117188 163.125 200.804688 C 162.8125 201.492188 162.554688 202.097656 162.554688 202.15625 C 162.554688 202.210938 162.242188 202.941406 161.859375 203.773438 C 161.480469 204.605469 161.167969 205.332031 161.167969 205.386719 C 161.167969 205.503906 159.25 210.007812 158.613281 211.394531 C 158.375 211.910156 157.980469 212.851562 157.734375 213.484375 C 157.488281 214.121094 157.015625 215.234375 156.683594 215.957031 C 156.351562 216.679688 156.078125 217.328125 156.078125 217.394531 C 156.078125 217.464844 155.824219 218.070312 155.515625 218.742188 C 153.457031 223.210938 151.460938 227.992188 151.574219 228.179688 C 151.765625 228.488281 188.105469 228.480469 188.679688 228.171875 C 188.917969 228.046875 189.289062 227.394531 189.503906 226.726562 C 189.914062 225.472656 191.851562 220.558594 193.546875 216.492188 C 194.074219 215.21875 195.1875 212.515625 196.015625 210.480469 C 198.835938 203.546875 200.363281 199.839844 203.777344 191.632812 C 204.597656 189.660156 205.554688 187.269531 205.902344 186.3125 C 207.433594 182.136719 207.480469 182.128906 208.875 185.734375 C 209.867188 188.292969 211.816406 193.003906 212.464844 194.40625 C 212.730469 194.980469 213.671875 197.164062 214.554688 199.265625 C 215.441406 201.363281 217.070312 205.109375 218.171875 207.589844 C 221.488281 215.039062 221.679688 215.496094 222.339844 217.417969 C 222.964844 219.230469 224.589844 223.054688 226.25 226.609375 C 227.066406 228.359375 227.109375 228.402344 227.949219 228.429688 C 231.515625 228.554688 260.761719 228.320312 260.921875 228.167969 C 261.117188 227.980469 260.683594 226.859375 258.289062 221.347656 C 255.886719 215.820312 252.972656 208.898438 252.972656 208.710938 C 252.972656 208.601562 252.464844 207.445312 251.847656 206.144531 C 251.226562 204.839844 250.457031 203.046875 250.136719 202.15625 C 249.363281 200.007812 248.066406 196.921875 246.09375 192.558594 C 245.199219 190.585938 244.238281 188.246094 243.949219 187.355469 C 243.660156 186.464844 242.828125 184.539062 242.097656 183.078125 C 241.371094 181.613281 240.613281 179.949219 240.417969 179.375 C 240.222656 178.804688 239.679688 177.453125 239.210938 176.371094 C 238.742188 175.289062 238.070312 173.675781 237.714844 172.785156 C 236.707031 170.25 234.628906 165.46875 233.066406 162.074219 C 232.695312 161.269531 232.390625 160.554688 232.390625 160.484375 C 232.390625 160.414062 232.136719 159.769531 231.828125 159.054688 C 230.140625 155.160156 225.636719 144.546875 224.996094 142.953125 C 224.585938 141.9375 224.015625 140.585938 223.730469 139.949219 C 223.441406 139.3125 223.125 138.53125 223.027344 138.214844 C 222.929688 137.894531 222.734375 137.558594 222.589844 137.464844 C 222.328125 137.289062 190.960938 137.273438 190.269531 137.449219 " fill-opacity="1" fill-rule="evenodd"/><g clip-path="url(#18a51c5b78)"><path fill="#ffffff" d="M 0 23.554688 L 374.980469 23.554688 L 374.980469 140.765625 L 0 140.765625 Z M 0 23.554688 " fill-opacity="1" fill-rule="nonzero"/></g><g clip-path="url(#567cef7459)"><path fill="#ffffff" d="M 0 224.445312 L 375.09375 224.445312 L 375.09375 345.230469 L 0 345.230469 Z M 0 224.445312 " fill-opacity="1" fill-rule="nonzero"/></g><g clip-path="url(#621d946d1a)"><g clip-path="url(#38d377c4c4)"><path fill="#ffffff" d="M 305.21875 260.894531 L 365.253906 118.542969 L 408.636719 136.839844 L 348.601562 279.191406 Z M 305.21875 260.894531 " fill-opacity="1" fill-rule="nonzero"/></g></g></svg>